Patient4_TMGait_0pt4_01_left_15_EMG.mot
version=1
nRows=13
nColumns=33
inDegrees=no
endheader
time	1LAddLong	2LGlutMax	3LGlutMed	4LIliopsoas	5LSemiMemb	6LBicFemLong	7LRecFem	8LVastMed	9LVastLat	10LGasMed	11LTibAnt	12lTibPost	13LPeroneusLong	14LSol	15LExtDigLong	16LFlexDigLong	17RAddLong	18RGlutMax	19RGlutMed	20RIliopsoas	21RSemiMemb	22RBicFemLong	23RRecFem	24RVastMed	25RVastLat	26RGasMed	27RTibAnt	28RTibPost	29RPeroneusLong	30RSol	31RExtDigLong	32RFlexDigLong
19.097	0.014801	-0.019684	0.21133	0	0.00412	0.30792	-0.020905	0.009766	-0.14099	-0.20508	-0.01236	-0.052643	-0.089264	0.063782	0.021515	-0.042725	-0.044861	-0.23605	-0.017242	0.20142	0.25421	0.15106	0.1886	0.077057	0.069427	0.002441	-0.016174	-0.003967	-0.017548	-0.037384	0.00061	-0.002594
19.098	0.008698	0.009766	0.19318	-0.007935	-0.006409	0.16953	-0.08194	0.010376	-0.10239	-0.099945	-0.004425	0.008698	-0.13031	-0.064392	0.005035	0.04715	-0.000153	-0.27679	-0.13229	0.12161	0.22568	0.063019	0.22827	0.10361	0.052338	0.006714	-0.20508	-0.00946	-0.020905	-0.071106	0.001526	-0.010223
19.099	0.008545	-0.023651	0.12848	-0.006104	-0.01709	-0.2594	-0.092926	0.01236	-0.073395	-0.089417	-0.006409	0.032196	0.24429	0.046539	-0.014954	-0.021515	0.050964	-0.29266	-0.037689	-0.007477	0.20859	0.055542	0.24353	0.10788	0.055237	-0.005188	-0.45319	-0.009308	-0.02533	-0.028687	-0.001526	-0.011444
19.1	0.008392	0.044708	0.055237	-0.008087	-0.026245	-0.31769	-0.1152	0.010223	-0.029602	-0.092926	-0.014801	-0.003357	0.28351	0.068512	-0.018768	-0.028992	0.093384	-0.26703	-0.023041	-0.11841	0.20889	0.020905	0.25101	0.13687	0.047607	-0.001678	-0.34225	-0.006561	0.058136	0.11856	0.001068	-0.012817
19.101	0.005188	0.03891	0.056458	0.007935	-0.020599	-0.39734	-0.15015	0.002594	-0.019226	-0.065918	-0.024109	-0.019073	0.068054	0.10071	0.016937	-0.040131	0.12207	-0.33096	0.00061	-0.16892	0.092773	-0.043488	0.25772	0.073395	0.036011	0.005035	-0.41565	-0.002289	0.11917	0.11414	0.000916	-0.018768
19.102	0.006714	0.04364	0.12146	0.004425	-0.017242	-0.45685	-0.12573	0.001678	-0.021515	-0.037079	-0.005646	-0.019073	0.073547	0.18509	0.086975	-0.027924	0.11383	-0.32349	0.037079	-0.060577	0.050507	0.006561	0.29251	0.11215	0.019226	0.006866	-0.42526	-0.007172	0.096741	0.068359	0.000458	-0.013428
19.103	0.00473	0.068054	0.15595	0.021667	-0.015564	-0.31723	-0.11246	0.001678	-0.03479	-0.017548	-0.013885	-0.010681	0.47058	0.2301	0.063934	-0.029144	0.084534	-0.34546	0.027008	0.072937	-0.010071	0.062714	0.27756	0.027008	-0.009003	0.01358	-0.41367	-0.001984	0.055695	0.032043	-0.005951	-0.025177
19.104	0.011749	0.059509	0.17593	0.014648	0.014954	-0.13626	-0.12634	0.000153	-0.03952	-0.019226	-0.003052	0.000153	0.33371	0.053864	-0.007324	-0.018311	0.039825	-0.34256	-0.11322	0.098724	-0.08667	0.077209	0.32974	0.045929	-0.002441	0.010986	-0.26977	-0.006409	0.024567	-0.00412	-0.000458	-0.027161
19.105	-0.00351	0.062256	0.12054	0.007019	-0.005493	0.002289	-0.11032	0.003815	-0.05249	-0.015717	0.027618	0.002136	-0.51392	-0.025482	-0.014648	-0.003204	0.007935	-0.29938	-0.025482	-0.032349	-0.1651	0.068817	0.27008	0.020752	0.019073	0.011749	-0.11963	-0.006256	-0.083313	0.019073	-0.000763	-0.020294
19.106	-0.003662	0.027161	0.098877	-0.019226	0.004578	0.10071	-0.121	-0.000153	-0.069733	0.017853	0.026398	0.003204	-0.20615	-0.1004	-0.051727	-0.014191	-0.050812	-0.30014	0.032196	0.05127	-0.19348	0.037994	0.27222	0.018311	0.020752	0.001526	-0.049133	-0.003204	-0.059204	0.072784	-0.001831	-0.02533
19.107	-0.011444	0.059052	0.14175	-0.005798	0.021362	0.16373	-0.15381	-0.004883	-0.027161	0.05127	0.001984	0.001831	-0.028229	-0.12299	-0.08606	-0.025787	-0.048523	-0.26062	0.087433	0.1593	-0.11231	-0.052643	0.27969	-0.029755	0.001526	-0.000763	0.000763	-0.005798	-0.002899	0.036621	0	-0.016937
19.108	-0.014191	0.07019	0.098114	0.024567	0.010071	0.21774	-0.10819	-0.007324	0.001068	0.06485	-0.009003	-0.001068	-0.22873	-0.082092	-0.071716	-0.004272	0.00412	-0.20615	0.023346	0.17731	-0.037537	-0.099792	0.30823	-0.063171	-0.003052	-0.000763	0.004883	-0.002899	0.002289	0.036469	0.000153	-0.007477
19.109	-0.005493	0.10712	0.051422	0.023804	-0.10819	0.26443	-0.082703	-0.004578	-0.03418	0.045929	-0.018005	0.000153	-0.14603	-0.038147	-0.02594	-0.037689	0.007782	-0.13672	-0.019684	0.086975	0.15564	-0.14694	0.31052	-0.052338	0.00351	-0.006714	-0.016174	-0.007782	0.005035	0.094604	-0.001831	-0.015717
